<mxfile host="app.diagrams.net" modified="2024-01-11T13:33:38.577Z" agent="Mozilla/5.0 (Windows NT 10.0; Win64; x64) AppleWebKit/537.36 (KHTML, like Gecko) Chrome/120.0.0.0 Safari/537.36" etag="R8SLqQRQtWyA_IHsnVB5" version="22.1.18" type="github">
  <diagram name="Page-1" id="evkMlUm7jSi08kVBB2Cr">
    <mxGraphModel dx="733" dy="390" grid="1" gridSize="10" guides="1" tooltips="1" connect="1" arrows="1" fold="1" page="1" pageScale="1" pageWidth="850" pageHeight="1100" math="0" shadow="0">
      <root>
        <mxCell id="0" />
        <mxCell id="1" parent="0" />
        <mxCell id="qrCc5YfNfcFZISVO1le1-1" value="" style="rounded=0;whiteSpace=wrap;html=1;" vertex="1" parent="1">
          <mxGeometry x="320" y="40" width="240" height="240" as="geometry" />
        </mxCell>
        <mxCell id="qrCc5YfNfcFZISVO1le1-2" value="Central APi" style="text;html=1;align=center;verticalAlign=middle;resizable=0;points=[];autosize=1;strokeColor=none;fillColor=none;" vertex="1" parent="1">
          <mxGeometry x="400" y="40" width="80" height="30" as="geometry" />
        </mxCell>
        <mxCell id="qrCc5YfNfcFZISVO1le1-3" value="Grpc Client" style="rounded=1;whiteSpace=wrap;html=1;fillColor=#e1d5e7;strokeColor=#9673a6;" vertex="1" parent="1">
          <mxGeometry x="330" y="210" width="100" height="50" as="geometry" />
        </mxCell>
        <mxCell id="qrCc5YfNfcFZISVO1le1-29" style="edgeStyle=orthogonalEdgeStyle;rounded=0;orthogonalLoop=1;jettySize=auto;html=1;exitX=0.25;exitY=0;exitDx=0;exitDy=0;entryX=0.75;entryY=1;entryDx=0;entryDy=0;fillColor=#e1d5e7;strokeColor=#9673a6;" edge="1" parent="1" source="qrCc5YfNfcFZISVO1le1-4" target="qrCc5YfNfcFZISVO1le1-5">
          <mxGeometry relative="1" as="geometry">
            <Array as="points">
              <mxPoint x="475" y="200" />
              <mxPoint x="470" y="200" />
            </Array>
          </mxGeometry>
        </mxCell>
        <mxCell id="qrCc5YfNfcFZISVO1le1-4" value="Grpc Consumer" style="rounded=1;whiteSpace=wrap;html=1;fillColor=#e1d5e7;strokeColor=#9673a6;" vertex="1" parent="1">
          <mxGeometry x="450" y="210" width="100" height="50" as="geometry" />
        </mxCell>
        <mxCell id="qrCc5YfNfcFZISVO1le1-30" style="edgeStyle=orthogonalEdgeStyle;rounded=0;orthogonalLoop=1;jettySize=auto;html=1;exitX=0.25;exitY=1;exitDx=0;exitDy=0;entryX=0.75;entryY=0;entryDx=0;entryDy=0;fillColor=#76608a;strokeColor=#432D57;" edge="1" parent="1" source="qrCc5YfNfcFZISVO1le1-5" target="qrCc5YfNfcFZISVO1le1-3">
          <mxGeometry relative="1" as="geometry">
            <Array as="points">
              <mxPoint x="410" y="190" />
              <mxPoint x="405" y="190" />
            </Array>
          </mxGeometry>
        </mxCell>
        <mxCell id="qrCc5YfNfcFZISVO1le1-5" value="Miscellaneous&lt;br&gt;&amp;nbsp;Service" style="rounded=1;whiteSpace=wrap;html=1;fillColor=#f5f5f5;strokeColor=#666666;fontColor=#333333;" vertex="1" parent="1">
          <mxGeometry x="380" y="70" width="120" height="110" as="geometry" />
        </mxCell>
        <mxCell id="qrCc5YfNfcFZISVO1le1-6" value="" style="shape=process;whiteSpace=wrap;html=1;backgroundOutline=1;" vertex="1" parent="1">
          <mxGeometry x="80" y="360" width="200" height="90" as="geometry" />
        </mxCell>
        <mxCell id="qrCc5YfNfcFZISVO1le1-7" value="Native App" style="text;html=1;align=center;verticalAlign=middle;resizable=0;points=[];autosize=1;strokeColor=none;fillColor=none;" vertex="1" parent="1">
          <mxGeometry x="140" y="420" width="80" height="30" as="geometry" />
        </mxCell>
        <mxCell id="qrCc5YfNfcFZISVO1le1-8" value="Grpc Client" style="rounded=1;whiteSpace=wrap;html=1;fillColor=#e1d5e7;strokeColor=#9673a6;" vertex="1" parent="1">
          <mxGeometry x="190" y="370" width="60" height="50" as="geometry" />
        </mxCell>
        <mxCell id="qrCc5YfNfcFZISVO1le1-9" value="Grpc Consumer" style="rounded=1;whiteSpace=wrap;html=1;fillColor=#e1d5e7;strokeColor=#9673a6;" vertex="1" parent="1">
          <mxGeometry x="110" y="370" width="60" height="50" as="geometry" />
        </mxCell>
        <mxCell id="qrCc5YfNfcFZISVO1le1-18" value="" style="shape=process;whiteSpace=wrap;html=1;backgroundOutline=1;" vertex="1" parent="1">
          <mxGeometry x="340" y="360" width="200" height="90" as="geometry" />
        </mxCell>
        <mxCell id="qrCc5YfNfcFZISVO1le1-19" value="Native App" style="text;html=1;align=center;verticalAlign=middle;resizable=0;points=[];autosize=1;strokeColor=none;fillColor=none;" vertex="1" parent="1">
          <mxGeometry x="400" y="420" width="80" height="30" as="geometry" />
        </mxCell>
        <mxCell id="qrCc5YfNfcFZISVO1le1-20" value="Grpc Client" style="rounded=1;whiteSpace=wrap;html=1;fillColor=#e1d5e7;strokeColor=#9673a6;" vertex="1" parent="1">
          <mxGeometry x="450" y="370" width="60" height="50" as="geometry" />
        </mxCell>
        <mxCell id="qrCc5YfNfcFZISVO1le1-21" value="Grpc Consumer" style="rounded=1;whiteSpace=wrap;html=1;fillColor=#e1d5e7;strokeColor=#9673a6;" vertex="1" parent="1">
          <mxGeometry x="370" y="370" width="60" height="50" as="geometry" />
        </mxCell>
        <mxCell id="qrCc5YfNfcFZISVO1le1-22" value="" style="shape=process;whiteSpace=wrap;html=1;backgroundOutline=1;" vertex="1" parent="1">
          <mxGeometry x="600" y="360" width="200" height="90" as="geometry" />
        </mxCell>
        <mxCell id="qrCc5YfNfcFZISVO1le1-23" value="Native App" style="text;html=1;align=center;verticalAlign=middle;resizable=0;points=[];autosize=1;strokeColor=none;fillColor=none;" vertex="1" parent="1">
          <mxGeometry x="660" y="420" width="80" height="30" as="geometry" />
        </mxCell>
        <mxCell id="qrCc5YfNfcFZISVO1le1-24" value="Grpc Client" style="rounded=1;whiteSpace=wrap;html=1;fillColor=#e1d5e7;strokeColor=#9673a6;" vertex="1" parent="1">
          <mxGeometry x="710" y="370" width="60" height="50" as="geometry" />
        </mxCell>
        <mxCell id="qrCc5YfNfcFZISVO1le1-25" value="Grpc Consumer" style="rounded=1;whiteSpace=wrap;html=1;fillColor=#e1d5e7;strokeColor=#9673a6;" vertex="1" parent="1">
          <mxGeometry x="630" y="370" width="60" height="50" as="geometry" />
        </mxCell>
        <mxCell id="qrCc5YfNfcFZISVO1le1-34" style="edgeStyle=orthogonalEdgeStyle;rounded=0;orthogonalLoop=1;jettySize=auto;html=1;exitX=0.5;exitY=1;exitDx=0;exitDy=0;entryX=0.5;entryY=0;entryDx=0;entryDy=0;fillColor=#76608a;strokeColor=#432D57;strokeWidth=2;" edge="1" parent="1" source="qrCc5YfNfcFZISVO1le1-3" target="qrCc5YfNfcFZISVO1le1-25">
          <mxGeometry relative="1" as="geometry">
            <Array as="points">
              <mxPoint x="380" y="320" />
              <mxPoint x="660" y="320" />
            </Array>
          </mxGeometry>
        </mxCell>
        <mxCell id="qrCc5YfNfcFZISVO1le1-35" style="edgeStyle=orthogonalEdgeStyle;rounded=0;orthogonalLoop=1;jettySize=auto;html=1;exitX=0.5;exitY=1;exitDx=0;exitDy=0;entryX=0.5;entryY=0;entryDx=0;entryDy=0;fillColor=#76608a;strokeColor=#432D57;strokeWidth=2;" edge="1" parent="1" source="qrCc5YfNfcFZISVO1le1-3" target="qrCc5YfNfcFZISVO1le1-21">
          <mxGeometry relative="1" as="geometry">
            <Array as="points">
              <mxPoint x="380" y="320" />
              <mxPoint x="400" y="320" />
            </Array>
          </mxGeometry>
        </mxCell>
        <mxCell id="qrCc5YfNfcFZISVO1le1-36" style="edgeStyle=orthogonalEdgeStyle;rounded=0;orthogonalLoop=1;jettySize=auto;html=1;exitX=0.5;exitY=1;exitDx=0;exitDy=0;entryX=0.5;entryY=0;entryDx=0;entryDy=0;fillColor=#76608a;strokeColor=#432D57;strokeWidth=2;" edge="1" parent="1" source="qrCc5YfNfcFZISVO1le1-3" target="qrCc5YfNfcFZISVO1le1-9">
          <mxGeometry relative="1" as="geometry">
            <Array as="points">
              <mxPoint x="380" y="320" />
              <mxPoint x="140" y="320" />
            </Array>
          </mxGeometry>
        </mxCell>
        <mxCell id="qrCc5YfNfcFZISVO1le1-44" style="edgeStyle=orthogonalEdgeStyle;rounded=0;orthogonalLoop=1;jettySize=auto;html=1;exitX=0.5;exitY=0;exitDx=0;exitDy=0;entryX=0.5;entryY=1;entryDx=0;entryDy=0;jumpStyle=arc;fillColor=#e1d5e7;strokeColor=#B68CC9;strokeWidth=2;" edge="1" parent="1" source="qrCc5YfNfcFZISVO1le1-8" target="qrCc5YfNfcFZISVO1le1-4">
          <mxGeometry relative="1" as="geometry">
            <Array as="points">
              <mxPoint x="220" y="300" />
              <mxPoint x="500" y="300" />
            </Array>
          </mxGeometry>
        </mxCell>
        <mxCell id="qrCc5YfNfcFZISVO1le1-43" style="edgeStyle=orthogonalEdgeStyle;rounded=0;orthogonalLoop=1;jettySize=auto;html=1;exitX=0.5;exitY=0;exitDx=0;exitDy=0;entryX=0.5;entryY=1;entryDx=0;entryDy=0;jumpStyle=arc;fillColor=#e1d5e7;strokeColor=#B68CC9;strokeWidth=2;" edge="1" parent="1" source="qrCc5YfNfcFZISVO1le1-20" target="qrCc5YfNfcFZISVO1le1-4">
          <mxGeometry relative="1" as="geometry">
            <Array as="points">
              <mxPoint x="480" y="300" />
              <mxPoint x="500" y="300" />
            </Array>
          </mxGeometry>
        </mxCell>
        <mxCell id="qrCc5YfNfcFZISVO1le1-40" style="edgeStyle=orthogonalEdgeStyle;rounded=0;orthogonalLoop=1;jettySize=auto;html=1;exitX=0.5;exitY=0;exitDx=0;exitDy=0;entryX=0.5;entryY=1;entryDx=0;entryDy=0;jumpStyle=arc;fillColor=#e1d5e7;strokeColor=#B68CC9;strokeWidth=2;" edge="1" parent="1" source="qrCc5YfNfcFZISVO1le1-24" target="qrCc5YfNfcFZISVO1le1-4">
          <mxGeometry relative="1" as="geometry">
            <Array as="points">
              <mxPoint x="740" y="300" />
              <mxPoint x="500" y="300" />
            </Array>
          </mxGeometry>
        </mxCell>
      </root>
    </mxGraphModel>
  </diagram>
</mxfile>
